<svg width="216" height="100" viewBox="0 0 216 100" fill="none" xmlns="http://www.w3.org/2000/svg">
<path d="M200.183 99.94C197.324 99.94 194.685 99.5185 192.266 98.6755C189.883 97.8325 188.014 96.6779 186.658 95.2117C186.145 94.6619 185.888 94.0388 185.888 93.3424C185.888 92.426 186.328 91.6013 187.208 90.8683C187.757 90.4284 188.344 90.2085 188.967 90.2085C189.92 90.2085 190.983 90.74 192.156 91.8029C193.036 92.6093 194.135 93.2324 195.455 93.6723C196.811 94.1488 198.259 94.387 199.798 94.387C202.657 94.387 204.875 93.5256 206.451 91.8029C208.027 90.0802 208.778 87.6977 208.705 84.6555L208.65 82.4562C207.404 83.9224 205.938 85.0037 204.252 85.7001C202.602 86.3965 200.568 86.7447 198.149 86.7447C193.64 86.7447 190.122 85.5168 187.592 83.061C185.063 80.5686 183.799 77.1231 183.799 72.7247C183.799 68.3262 185.082 64.8991 187.647 62.4433C190.25 59.9509 193.86 58.7047 198.479 58.7047C200.385 58.7047 202.217 59.0895 203.977 59.8592C205.736 60.629 207.312 61.7103 208.705 63.1031V62.0035C208.705 60.9772 209.035 60.1708 209.695 59.5843C210.354 58.9979 211.234 58.7047 212.334 58.7047C213.433 58.7047 214.295 58.9979 214.918 59.5843C215.578 60.1341 215.907 60.9405 215.907 62.0035V84.6555C215.907 87.5877 215.266 90.2085 213.983 92.5177C212.737 94.8269 210.923 96.6412 208.54 97.9608C206.194 99.2803 203.409 99.94 200.183 99.94ZM199.578 81.0267C202.437 81.0267 204.673 80.2937 206.286 78.8275C207.899 77.3614 208.705 75.3271 208.705 72.7247C208.705 70.1223 207.899 68.088 206.286 66.6218C204.673 65.1557 202.437 64.4226 199.578 64.4226C196.903 64.4226 194.813 65.1557 193.31 66.6218C191.808 68.088 191.056 70.1223 191.056 72.7247C191.056 75.3271 191.808 77.3614 193.31 78.8275C194.813 80.2937 196.903 81.0267 199.578 81.0267Z" fill="white"/>
<path d="M154.096 86.7447C152.96 86.7447 152.08 86.4515 151.457 85.865C150.834 85.2786 150.523 84.4722 150.523 83.4459V62.0035C150.523 60.9405 150.816 60.1341 151.402 59.5843C152.026 58.9979 152.887 58.7047 153.986 58.7047C155.086 58.7047 155.947 58.9979 156.571 59.5843C157.194 60.1708 157.505 60.9772 157.505 62.0035V63.5979C160.108 60.3357 163.663 58.7047 168.171 58.7047C171.69 58.7047 174.458 59.8226 176.474 62.0585C178.526 64.2577 179.552 67.2633 179.552 71.0753V83.4459C179.552 84.4722 179.223 85.2786 178.563 85.865C177.903 86.4515 177.023 86.7447 175.924 86.7447C174.787 86.7447 173.908 86.4515 173.285 85.865C172.662 85.2786 172.35 84.4722 172.35 83.4459V71.0753C172.35 68.986 171.837 67.3549 170.811 66.182C169.784 65.0091 168.355 64.4226 166.522 64.4226C163.736 64.4226 161.574 65.2473 160.034 66.8967C158.495 68.5095 157.725 70.782 157.725 73.7143V83.4459C157.725 84.4722 157.395 85.2786 156.735 85.865C156.076 86.4515 155.196 86.7447 154.096 86.7447Z" fill="white"/>
<path d="M130.437 86.7447C127.248 86.7447 124.408 86.1766 121.915 85.0403C119.459 83.8674 117.535 82.218 116.142 80.0921C114.749 77.9662 114.053 75.5104 114.053 72.7247C114.053 69.939 114.749 67.4832 116.142 65.3573C117.535 63.2314 119.459 61.6003 121.915 60.464C124.408 59.2911 127.248 58.7047 130.437 58.7047C133.626 58.7047 136.448 59.2911 138.904 60.464C141.397 61.6003 143.339 63.2314 144.732 65.3573C146.125 67.4832 146.821 69.939 146.821 72.7247C146.821 75.5104 146.125 77.9662 144.732 80.0921C143.339 82.218 141.397 83.8674 138.904 85.0403C136.448 86.1766 133.626 86.7447 130.437 86.7447ZM130.437 81.0267C133.26 81.0267 135.477 80.2937 137.09 78.8275C138.739 77.3614 139.564 75.3271 139.564 72.7247C139.564 70.1223 138.739 68.088 137.09 66.6218C135.477 65.1557 133.26 64.4226 130.437 64.4226C127.615 64.4226 125.379 65.1557 123.73 66.6218C122.117 68.088 121.31 70.1223 121.31 72.7247C121.31 75.3271 122.117 77.3614 123.73 78.8275C125.379 80.2937 127.615 81.0267 130.437 81.0267Z" fill="white"/>
<path d="M95.8832 86.7447C92.2912 86.7447 88.919 86.1583 85.7668 84.9853C82.6146 83.7758 79.8839 82.0531 77.5747 79.8172C77.0249 79.2674 76.75 78.6443 76.75 77.9478C76.75 77.1415 77.1165 76.3717 77.8496 75.6387C78.4361 75.0522 79.0775 74.759 79.7739 74.759C80.507 74.759 81.3867 75.1805 82.413 76.0235C84.1357 77.5996 86.17 78.8275 88.5158 79.7072C90.8983 80.5503 93.3541 80.9718 95.8832 80.9718C98.3024 80.9718 100.19 80.5686 101.546 79.7622C102.902 78.9192 103.58 77.7462 103.58 76.2434C103.58 74.6673 102.847 73.4028 101.381 72.4498C99.9151 71.4601 97.4227 70.5805 93.9039 69.8107C88.3692 68.6012 84.3373 67.0067 81.8082 65.0274C79.3158 63.0481 78.0695 60.5007 78.0695 57.3851C78.0695 55.4058 78.7293 53.6465 80.0488 52.107C81.3684 50.5309 83.201 49.3213 85.5469 48.4783C87.9294 47.5986 90.6417 47.1588 93.684 47.1588C97.0928 47.1588 100.117 47.7269 102.756 48.8631C105.432 49.9628 107.466 51.5205 108.859 53.5365C109.335 54.3062 109.573 54.966 109.573 55.5158C109.537 56.4321 109.079 57.2202 108.199 57.88C107.722 58.2098 107.173 58.3748 106.549 58.3748C105.413 58.3748 104.479 57.9349 103.745 57.0552C102.682 55.7724 101.253 54.7644 99.457 54.0313C97.6976 53.2982 95.7733 52.9317 93.684 52.9317C91.0816 52.9317 89.0473 53.3349 87.5812 54.1413C86.1517 54.911 85.4369 55.9923 85.4369 57.3851C85.4369 58.778 86.1333 59.9326 87.5262 60.8489C88.9557 61.7286 91.4115 62.5716 94.8936 63.378C98.7422 64.2943 101.839 65.339 104.185 66.5119C106.531 67.6482 108.236 69.0043 109.298 70.5805C110.398 72.1566 110.948 74.0442 110.948 76.2434C110.948 78.3327 110.325 80.1837 109.079 81.7965C107.832 83.3726 106.073 84.6005 103.8 85.4802C101.528 86.3232 98.8888 86.7447 95.8832 86.7447Z" fill="white"/>
<path d="M150.045 42.28C148.909 42.28 148.029 41.9868 147.406 41.4003C146.783 40.8139 146.472 40.0075 146.472 38.9812V17.5388C146.472 16.4758 146.765 15.6694 147.351 15.1196C147.974 14.5332 148.836 14.2399 149.935 14.2399C151.035 14.2399 151.896 14.5332 152.519 15.1196C153.143 15.7061 153.454 16.5125 153.454 17.5388V19.3531C154.59 17.887 155.91 16.769 157.413 15.9993C158.952 15.1929 160.602 14.7897 162.361 14.7897H163.571C164.743 14.7897 165.641 15.0463 166.265 15.5595C166.924 16.036 167.254 16.7324 167.254 17.6487C167.254 18.5651 166.924 19.2798 166.265 19.793C165.641 20.2695 164.743 20.5077 163.571 20.5077H161.701C159.245 20.5077 157.284 21.2958 155.818 22.8719C154.389 24.4113 153.674 26.5373 153.674 29.2496V38.9812C153.674 40.0075 153.344 40.8139 152.684 41.4003C152.025 41.9868 151.145 42.28 150.045 42.28Z" fill="white"/>
<path d="M127.548 42.28C124.396 42.28 121.647 41.7119 119.301 40.5756C116.955 39.4393 115.141 37.8449 113.858 35.7923C112.612 33.703 111.988 31.2656 111.988 28.4799C111.988 23.9715 113.29 20.4711 115.892 17.9786C118.531 15.4862 122.233 14.2399 126.998 14.2399C129.93 14.2399 132.514 14.6981 134.75 15.6145C137.023 16.5308 138.782 17.8137 140.028 19.4631C141.311 21.0759 141.953 22.9269 141.953 25.0161C141.953 26.7755 141.385 28.1317 140.248 29.0847C139.149 30.0377 137.573 30.5142 135.52 30.5142H122.634V25.456H119.081V30.5142H118.971C118.971 32.5668 119.686 34.1246 121.115 35.1875C122.581 36.2138 124.726 36.727 127.548 36.727C130.517 36.727 133.046 36.0672 135.135 34.7477C136.308 34.0146 137.224 33.6481 137.884 33.6481C138.507 33.6481 139.112 33.9413 139.699 34.5278C140.322 35.1509 140.633 35.829 140.633 36.562C140.633 37.4417 140.267 38.1381 139.534 38.6513C137.994 39.8242 136.198 40.7222 134.146 41.3453C132.093 41.9685 129.894 42.28 127.548 42.28ZM133.321 25.456C133.944 25.456 134.384 25.346 134.64 25.1261C134.897 24.8695 135.025 24.4663 135.025 23.9165C135.025 22.6336 134.292 21.6257 132.826 20.8926C131.397 20.1595 129.454 19.793 126.998 19.793C124.542 19.793 122.6 20.3061 121.17 21.3324C119.777 22.3587 119.081 23.7332 119.081 25.456H122.634H133.321Z" fill="white"/>
<path d="M79.4941 42.28C78.3579 42.28 77.4782 41.9868 76.8551 41.4003C76.232 40.8139 75.9204 40.0075 75.9204 38.9812V3.29883C75.9204 2.27253 76.232 1.46615 76.8551 0.87969C77.4782 0.293229 78.3579 0 79.4941 0C80.5938 0 81.4734 0.293229 82.1332 0.87969C82.793 1.46615 83.1229 2.27253 83.1229 3.29883L83.1778 18.5284C84.4607 17.1356 86.0002 16.0726 87.7962 15.3396C89.5922 14.6065 91.4982 14.24 93.5142 14.24C98.0592 14.24 101.615 15.4862 104.18 17.9786C106.746 20.4344 108.029 23.8615 108.029 28.26C108.029 32.6584 106.728 36.1039 104.125 38.5963C101.56 41.0521 97.9676 42.28 93.3492 42.28C91.26 42.28 89.4273 41.9501 87.8512 41.2904C86.2751 40.594 84.699 39.4577 83.1229 37.8816V38.9812C83.1229 40.0075 82.793 40.8139 82.1332 41.4003C81.4734 41.9868 80.5938 42.28 79.4941 42.28ZM92.2496 36.562C94.9253 36.562 97.0146 35.829 98.5174 34.3628C100.02 32.8967 100.772 30.8624 100.772 28.26C100.772 25.6576 100.02 23.6233 98.5174 22.1572C97.0146 20.691 94.9253 19.9579 92.2496 19.9579C89.3906 19.9579 87.1548 20.691 85.542 22.1572C83.9292 23.6233 83.1229 25.6576 83.1229 28.26C83.1229 30.8624 83.9292 32.8967 85.542 34.3628C87.1548 35.829 89.3906 36.562 92.2496 36.562Z" fill="white"/>
<path d="M56.1592 55.4753C53.4835 55.4753 51.046 55.0538 48.8468 54.2108C46.6842 53.4044 45.0165 52.2681 43.8436 50.802C43.3671 50.1789 43.1288 49.5374 43.1288 48.8777C43.1288 47.998 43.5504 47.1916 44.3934 46.4585C44.9432 46.0187 45.548 45.7988 46.2077 45.7988C47.1974 45.7988 48.1504 46.2936 49.0667 47.2832C50.6428 48.9693 52.952 49.8123 55.9943 49.8123C58.5967 49.8123 60.5577 49.1159 61.8772 47.7231C63.2334 46.3669 63.9115 44.3693 63.9115 41.7302V39.421C63.0318 40.2641 61.8955 40.9605 60.5027 41.5103C59.1098 42.0234 57.7903 42.28 56.5441 42.28C51.9624 42.28 48.3886 41.0704 45.8229 38.6513C43.2571 36.1955 41.9742 32.7867 41.9742 28.4249V17.3189C41.9742 16.4392 42.3225 15.7061 43.0189 15.1196C43.7153 14.5332 44.5767 14.2399 45.603 14.2399C46.5926 14.2399 47.4356 14.5515 48.1321 15.1746C48.8285 15.7611 49.1767 16.4758 49.1767 17.3189V28.4249C49.1767 31.064 49.8181 33.1166 51.101 34.5827C52.4205 36.0489 54.2349 36.782 56.5441 36.782C58.78 36.782 60.521 36.0489 61.7672 34.5827C63.0135 33.1166 63.6366 31.064 63.6366 28.4249V17.9236C63.6366 16.7507 63.9481 15.8527 64.5712 15.2296C65.231 14.5698 66.129 14.2399 67.2653 14.2399C68.4015 14.2399 69.2812 14.5698 69.9044 15.2296C70.5275 15.8527 70.839 16.7507 70.839 17.9236V40.7955C70.839 45.4139 69.5378 49.006 66.9354 51.5717C64.3696 54.1741 60.7776 55.4753 56.1592 55.4753Z" fill="white"/>
<path d="M20.1779 42.28C16.036 42.28 12.4439 41.492 9.40167 39.9159C6.35941 38.3397 4.0319 36.0672 2.41914 33.0983C0.806381 30.1293 0 26.6106 0 22.542C0 18.4735 0.806381 14.9547 2.41914 11.9858C4.0319 8.98015 6.34109 6.6893 9.34669 5.11319C12.3889 3.50043 15.9627 2.69405 20.0679 2.69405C23.4767 2.69405 26.6289 3.28051 29.5245 4.45342C32.4202 5.62634 34.5644 7.18412 35.9573 9.12676C36.3971 9.71322 36.617 10.318 36.617 10.9411C36.617 11.8575 36.1222 12.6822 35.1326 13.4152C34.6927 13.7451 34.1429 13.9101 33.4831 13.9101C32.9333 13.9101 32.3835 13.8001 31.8337 13.5802C31.2839 13.3236 30.8257 12.9754 30.4592 12.5356C29.213 11.1061 27.7652 10.0798 26.1157 9.45665C24.4663 8.79689 22.4504 8.467 20.0679 8.467C16.0726 8.467 12.9571 9.71323 10.7212 12.2057C8.48533 14.6615 7.36739 18.1069 7.36739 22.542C7.36739 26.9405 8.48533 30.3676 10.7212 32.8234C12.9937 35.2792 16.1459 36.5071 20.1779 36.5071C24.7962 36.5071 28.4799 35.1509 31.2289 32.4385C32.3652 31.3755 33.4098 30.8441 34.3628 30.8441C35.0226 30.8441 35.6274 31.064 36.1772 31.5038C37.0202 32.2369 37.4417 33.0433 37.4417 33.923C37.4417 34.5827 37.2035 35.2242 36.727 35.8473C35.1509 37.8633 32.8967 39.4394 29.9644 40.5756C27.0687 41.7119 23.8066 42.28 20.1779 42.28Z" fill="white"/>
</svg>
